<svg width="26" height="26" viewBox="0 0 26 26" fill="none" xmlns="http://www.w3.org/2000/svg">
<circle cx="13" cy="13" r="13" fill="#C4C4C4"/>
<path d="M4 12.75C4 12.3358 4.33579 12 4.75 12H21.25C21.6642 12 22 12.3358 22 12.75V12.75C22 13.1642 21.6642 13.5 21.25 13.5H4.75C4.33579 13.5 4 13.1642 4 12.75V12.75Z" fill="black"/>
<path d="M12.75 3C13.1642 3 13.5 3.33579 13.5 3.75L13.5 20.25C13.5 20.6642 13.1642 21 12.75 21V21C12.3358 21 12 20.6642 12 20.25L12 3.75C12 3.33579 12.3358 3 12.75 3V3Z" fill="black"/>
</svg>
