<svg width="28" height="28" viewBox="0 0 28 28" fill="none" xmlns="http://www.w3.org/2000/svg">
<path d="M10.25 18.5H16.5C16.6326 18.5 16.7598 18.5527 16.8536 18.6464C16.9473 18.7402 17 18.8674 17 19V24.5C17 24.6326 16.9473 24.7598 16.8536 24.8536C16.7598 24.9473 16.6326 25 16.5 25H4.25C3.56 25 3 24.44 3 23.75V4.25C3 3.56 3.56 3 4.25 3H23.75C24.44 3 25 3.56 25 4.25V9C25 9.13261 24.9473 9.25979 24.8536 9.35355C24.7598 9.44732 24.6326 9.5 24.5 9.5H10.25C10.0511 9.5 9.86032 9.57902 9.71967 9.71967C9.57902 9.86032 9.5 10.0511 9.5 10.25V17.75C9.5 18.164 9.836 18.5 10.25 18.5ZM11.5 17C11.3674 17 11.2402 16.9473 11.1464 16.8536C11.0527 16.7598 11 16.6326 11 16.5V11.5C11 11.3674 11.0527 11.2402 11.1464 11.1464C11.2402 11.0527 11.3674 11 11.5 11H24.5C24.6326 11 24.7598 11.0527 24.8536 11.1464C24.9473 11.2402 25 11.3674 25 11.5V23.75C25 24.44 24.44 25 23.75 25H19C18.8674 25 18.7402 24.9473 18.6464 24.8536C18.5527 24.7598 18.5 24.6326 18.5 24.5V17.75C18.5 17.5511 18.421 17.3603 18.2803 17.2197C18.1397 17.079 17.9489 17 17.75 17H11.5Z" fill="black"/>
</svg>
