<svg width="25" height="23" viewBox="0 0 25 23" fill="none" xmlns="http://www.w3.org/2000/svg">
<path d="M24.0768 9.769C24.0758 9.768 24.0748 9.767 24.0728 9.765L13.2788 0.416C13.0038 0.154 12.6438 0.006 12.2408 0C11.8598 0.006 11.4998 0.154 11.2528 0.391L0.426764 9.769C0.0077635 10.137 -0.119236 10.724 0.119764 11.238C0.330764 11.694 0.818764 11.958 1.32076 11.958H3.25176V21.208C3.25176 22.174 4.03576 22.958 5.00176 22.958H9.25176C9.80376 22.958 10.2518 22.51 10.2518 21.958V15.788C10.2518 15.605 10.3998 15.458 10.5818 15.458H13.9218C14.1038 15.458 14.2518 15.605 14.2518 15.788V21.958C14.2518 22.51 14.6998 22.958 15.2518 22.958H19.5018C20.4688 22.958 21.2518 22.174 21.2518 21.208V11.958H23.1828C23.6848 11.958 24.1728 11.694 24.3838 11.238C24.6228 10.724 24.4958 10.137 24.0768 9.769Z" fill="black"/>
</svg>
