<svg width="28" height="28" viewBox="0 0 28 28" fill="none" xmlns="http://www.w3.org/2000/svg">
<path d="M10.995 23.625V17.825C10.995 17.299 11.419 16.875 11.945 16.875H16.035C16.561 16.875 16.985 17.299 16.985 17.825V23.625H21.965C22.395 23.625 22.745 23.277 22.745 22.845V14.581C22.621 14.508 22.503 14.422 22.395 14.325L21.985 13.955C21.795 13.785 21.535 13.785 21.345 13.955L21.175 14.105C20.625 14.595 19.925 14.865 19.205 14.865H18.975C18.265 14.865 17.565 14.605 17.015 14.115L16.825 13.945C16.635 13.775 16.375 13.775 16.185 13.945L15.995 14.115C15.445 14.605 14.745 14.875 14.035 14.875H13.895C13.185 14.875 12.495 14.615 11.955 14.135L11.735 13.945C11.545 13.775 11.285 13.775 11.095 13.945L10.915 14.105C10.365 14.595 9.66499 14.865 8.94499 14.865H8.765C8.045 14.865 7.355 14.605 6.805 14.115L6.605 13.945C6.425 13.775 6.165 13.775 5.975 13.945L5.495 14.375C5.419 14.442 5.339 14.504 5.255 14.558V22.845C5.255 23.275 5.603 23.625 6.035 23.625H10.995V23.625ZM24.245 14.83V22.845C24.245 24.107 23.222 25.125 21.965 25.125H6.035C4.773 25.125 3.755 24.102 3.755 22.845V14.856C2.762 14.717 1.995 13.818 1.995 12.725V10.375C1.995 10.095 2.21499 9.875 2.49499 9.875H25.505C25.785 9.875 26.005 10.095 26.005 10.375V12.555C26.005 13.679 25.249 14.618 24.245 14.83V14.83ZM24.955 8.875H3.025C2.675 8.875 2.435 8.515 2.565 8.185L4.385 3.695C4.575 3.205 5.035 2.875 5.555 2.875H22.425C22.945 2.875 23.405 3.205 23.595 3.705L25.415 8.185C25.555 8.515 25.305 8.875 24.955 8.875Z" fill="black"/>
</svg>
