<svg width="26" height="26" viewBox="0 0 26 26" fill="none" xmlns="http://www.w3.org/2000/svg">
<circle cx="13" cy="13" r="13" fill="#C4C4C4"/>
<path d="M19.8902 16.185L18.0648 13.945L17.9998 10C18.0019 9.97338 18.0019 9.94662 17.9998 9.92C17.4247 6.79 15.6042 5 12.9986 5C10.248 5 8.03746 7 7.49734 9.91C7.49463 9.93994 7.49463 9.97006 7.49734 10L7.43232 14L6.067 16.24C6.02311 16.316 6 16.4022 6 16.49C6 16.5778 6.02311 16.664 6.067 16.74C6.10936 16.8174 6.17147 16.8823 6.24701 16.9279C6.32255 16.9736 6.40884 16.9985 6.4971 17H10.9982C10.9982 17.5304 11.2089 18.0391 11.5841 18.4142C11.9592 18.7893 12.4681 19 12.9986 19C13.5292 19 14.038 18.7893 14.4132 18.4142C14.7883 18.0391 14.9991 17.5304 14.9991 17H19.5001C19.5944 16.9997 19.6867 16.9728 19.7663 16.9224C19.8459 16.872 19.9097 16.8001 19.9502 16.715C19.9913 16.63 20.0074 16.5351 19.9968 16.4413C19.9862 16.3475 19.9492 16.2587 19.8902 16.185V16.185ZM12.9986 18C12.7333 18 12.4789 17.8946 12.2913 17.7071C12.1038 17.5196 11.9984 17.2652 11.9984 17H13.9989C13.9989 17.2652 13.8935 17.5196 13.7059 17.7071C13.5183 17.8946 13.2639 18 12.9986 18V18ZM7.38231 16L8.38254 14.38C8.42749 14.3043 8.45164 14.218 8.45256 14.13L8.49757 10.05C8.95268 7.625 10.7581 6 12.9986 6C15.8143 6 16.7145 8.5 16.9996 10.05L17.0696 14.13C17.0702 14.2428 17.109 14.352 17.1796 14.44L18.4499 16H7.38231Z" fill="black"/>
<path d="M17.5001 8.99998C15.0001 6.99998 23 19 9.07013 16C7.68942 16 5.99998 17.5 8.49994 13C8.49994 11.6193 5.99996 9.49992 10.5 6.49997C11.5 4.99998 15.0001 4.49994 17.5001 8.99998Z" fill="black"/>
<ellipse cx="17" cy="15.5" rx="2" ry="1.5" fill="black"/>
</svg>
