<svg width="26" height="26" viewBox="0 0 26 26" fill="none" xmlns="http://www.w3.org/2000/svg">
<circle cx="13" cy="13" r="13" fill="#C4C4C4"/>
<path d="M11.8709 5C8.08432 5 5 8.08432 5 11.8709C5 15.6574 8.08432 18.7417 11.8709 18.7417C13.5175 18.7417 15.0296 18.157 16.2148 17.1864L20.3172 21.2887C20.3805 21.3547 20.4563 21.4073 20.5402 21.4436C20.6241 21.4799 20.7144 21.499 20.8059 21.5C20.8973 21.5009 20.9879 21.4836 21.0726 21.449C21.1572 21.4145 21.2341 21.3634 21.2987 21.2987C21.3634 21.2341 21.4145 21.1572 21.449 21.0726C21.4836 20.9879 21.5009 20.8973 21.5 20.8059C21.499 20.7144 21.4799 20.6241 21.4436 20.5402C21.4073 20.4563 21.3547 20.3805 21.2887 20.3172L17.1864 16.2148C18.157 15.0296 18.7417 13.5175 18.7417 11.8709C18.7417 8.08432 15.6574 5 11.8709 5ZM11.8709 6.37417C14.9147 6.37417 17.3675 8.82698 17.3675 11.8709C17.3675 14.9147 14.9147 17.3675 11.8709 17.3675C8.82698 17.3675 6.37417 14.9147 6.37417 11.8709C6.37417 8.82698 8.82698 6.37417 11.8709 6.37417Z" fill="black"/>
</svg>
